<svg width="192" height="33" viewBox="0 0 192 33" fill="none" xmlns="http://www.w3.org/2000/svg">
<path d="M5 4H29V28C29 30.2091 27.2091 32 25 32H5C2.79086 32 1 30.2091 1 28V8C1 5.79086 2.79086 4 5 4Z" stroke="#F3F1F1" stroke-width="2"/>
<path d="M7 28H8V14.3158H7C6.46957 14.3158 5.96086 14.5376 5.58579 14.9324C5.21071 15.3272 5 15.8627 5 16.4211V25.8947C5 26.4531 5.21071 26.9886 5.58579 27.3834C5.96086 27.7782 6.46957 28 7 28ZM23 14.3158H16L17.122 10.7705C17.2221 10.4541 17.2494 10.1172 17.2016 9.78753C17.1538 9.45786 17.0322 9.14486 16.847 8.87431C16.6617 8.60376 16.4181 8.38341 16.1361 8.23141C15.8541 8.0794 15.5418 8.00009 15.225 8H15L10 13.7242V28H21L24.912 18.9516L25 18.5263V16.4211C25 15.8627 24.7893 15.3272 24.4142 14.9324C24.0391 14.5376 23.5304 14.3158 23 14.3158Z" fill="url(#paint0_linear_116_12)"/>
<path d="M32.49 28V7.21H45.63V10.42H36.27V15.73H44.58V18.94H36.27V28H32.49ZM53.0058 25.45C54.1258 25.45 54.9758 25.39 55.5558 25.27V21.25C55.3558 21.19 55.0658 21.13 54.6858 21.07C54.3058 21.01 53.8858 20.98 53.4258 20.98C53.0258 20.98 52.6158 21.01 52.1958 21.07C51.7958 21.13 51.4258 21.24 51.0858 21.4C50.7658 21.56 50.5058 21.79 50.3058 22.09C50.1058 22.37 50.0058 22.73 50.0058 23.17C50.0058 24.03 50.2758 24.63 50.8158 24.97C51.3558 25.29 52.0858 25.45 53.0058 25.45ZM52.7058 11.92C53.9058 11.92 54.9158 12.07 55.7358 12.37C56.5558 12.67 57.2058 13.09 57.6858 13.63C58.1858 14.17 58.5358 14.83 58.7358 15.61C58.9558 16.37 59.0658 17.21 59.0658 18.13V27.64C58.5058 27.76 57.6558 27.9 56.5158 28.06C55.3958 28.24 54.1258 28.33 52.7058 28.33C51.7658 28.33 50.9058 28.24 50.1258 28.06C49.3458 27.88 48.6758 27.59 48.1158 27.19C47.5758 26.79 47.1458 26.27 46.8258 25.63C46.5258 24.99 46.3758 24.2 46.3758 23.26C46.3758 22.36 46.5458 21.6 46.8858 20.98C47.2458 20.36 47.7258 19.86 48.3258 19.48C48.9258 19.08 49.6158 18.8 50.3958 18.64C51.1958 18.46 52.0258 18.37 52.8858 18.37C53.2858 18.37 53.7058 18.4 54.1458 18.46C54.5858 18.5 55.0558 18.58 55.5558 18.7V18.1C55.5558 17.68 55.5058 17.28 55.4058 16.9C55.3058 16.52 55.1258 16.19 54.8658 15.91C54.6258 15.61 54.2958 15.38 53.8758 15.22C53.4758 15.06 52.9658 14.98 52.3458 14.98C51.5058 14.98 50.7358 15.04 50.0358 15.16C49.3358 15.28 48.7658 15.42 48.3258 15.58L47.8758 12.64C48.3358 12.48 49.0058 12.32 49.8858 12.16C50.7658 12 51.7058 11.92 52.7058 11.92ZM67.4412 25.39C68.4012 25.39 69.1012 25.28 69.5412 25.06C69.9812 24.82 70.2012 24.42 70.2012 23.86C70.2012 23.34 69.9612 22.91 69.4812 22.57C69.0212 22.23 68.2512 21.86 67.1712 21.46C66.5112 21.22 65.9012 20.97 65.3412 20.71C64.8012 20.43 64.3312 20.11 63.9312 19.75C63.5312 19.39 63.2112 18.96 62.9712 18.46C62.7512 17.94 62.6412 17.31 62.6412 16.57C62.6412 15.13 63.1712 14 64.2312 13.18C65.2912 12.34 66.7312 11.92 68.5512 11.92C69.4712 11.92 70.3512 12.01 71.1912 12.19C72.0312 12.35 72.6612 12.51 73.0812 12.67L72.4212 15.61C72.0212 15.43 71.5112 15.27 70.8912 15.13C70.2712 14.97 69.5512 14.89 68.7312 14.89C67.9912 14.89 67.3912 15.02 66.9312 15.28C66.4712 15.52 66.2412 15.9 66.2412 16.42C66.2412 16.68 66.2812 16.91 66.3612 17.11C66.4612 17.31 66.6212 17.5 66.8412 17.68C67.0612 17.84 67.3512 18.01 67.7112 18.19C68.0712 18.35 68.5112 18.52 69.0312 18.7C69.8912 19.02 70.6212 19.34 71.2212 19.66C71.8212 19.96 72.3112 20.31 72.6912 20.71C73.0912 21.09 73.3812 21.53 73.5612 22.03C73.7412 22.53 73.8312 23.13 73.8312 23.83C73.8312 25.33 73.2712 26.47 72.1512 27.25C71.0512 28.01 69.4712 28.39 67.4112 28.39C66.0312 28.39 64.9212 28.27 64.0812 28.03C63.2412 27.81 62.6512 27.63 62.3112 27.49L62.9412 24.46C63.4812 24.68 64.1212 24.89 64.8612 25.09C65.6212 25.29 66.4812 25.39 67.4412 25.39ZM77.2221 28V5.32L80.8521 4.72V12.49C81.2521 12.35 81.7121 12.23 82.2321 12.13C82.7721 12.03 83.3021 11.98 83.8221 11.98C85.0821 11.98 86.1221 12.16 86.9421 12.52C87.7821 12.86 88.4521 13.35 88.9521 13.99C89.4521 14.61 89.8021 15.36 90.0021 16.24C90.2221 17.12 90.3321 18.1 90.3321 19.18V28H86.7021V19.75C86.7021 18.91 86.6421 18.2 86.5221 17.62C86.4221 17.02 86.2421 16.54 85.9821 16.18C85.7421 15.8 85.4121 15.53 84.9921 15.37C84.5721 15.19 84.0521 15.1 83.4321 15.1C82.9521 15.1 82.4621 15.15 81.9621 15.25C81.4621 15.35 81.0921 15.44 80.8521 15.52V28H77.2221ZM98.343 28H94.713V12.31H98.343V28ZM98.733 7.72C98.733 8.4 98.513 8.94 98.073 9.34C97.633 9.74 97.113 9.94 96.513 9.94C95.893 9.94 95.363 9.74 94.923 9.34C94.483 8.94 94.263 8.4 94.263 7.72C94.263 7.02 94.483 6.47 94.923 6.07C95.363 5.67 95.893 5.47 96.513 5.47C97.113 5.47 97.633 5.67 98.073 6.07C98.513 6.47 98.733 7.02 98.733 7.72ZM117.164 20.14C117.164 21.38 116.984 22.51 116.624 23.53C116.264 24.55 115.754 25.42 115.094 26.14C114.434 26.86 113.634 27.42 112.694 27.82C111.774 28.22 110.754 28.42 109.634 28.42C108.514 28.42 107.494 28.22 106.574 27.82C105.654 27.42 104.864 26.86 104.204 26.14C103.544 25.42 103.024 24.55 102.644 23.53C102.284 22.51 102.104 21.38 102.104 20.14C102.104 18.9 102.284 17.78 102.644 16.78C103.024 15.76 103.544 14.89 104.204 14.17C104.884 13.45 105.684 12.9 106.604 12.52C107.524 12.12 108.534 11.92 109.634 11.92C110.734 11.92 111.744 12.12 112.664 12.52C113.604 12.9 114.404 13.45 115.064 14.17C115.724 14.89 116.234 15.76 116.594 16.78C116.974 17.78 117.164 18.9 117.164 20.14ZM113.444 20.14C113.444 18.58 113.104 17.35 112.424 16.45C111.764 15.53 110.834 15.07 109.634 15.07C108.434 15.07 107.494 15.53 106.814 16.45C106.154 17.35 105.824 18.58 105.824 20.14C105.824 21.72 106.154 22.97 106.814 23.89C107.494 24.81 108.434 25.27 109.634 25.27C110.834 25.27 111.764 24.81 112.424 23.89C113.104 22.97 113.444 21.72 113.444 20.14ZM120.904 12.82C121.604 12.62 122.514 12.43 123.634 12.25C124.754 12.07 125.994 11.98 127.354 11.98C128.634 11.98 129.704 12.16 130.564 12.52C131.424 12.86 132.104 13.35 132.604 13.99C133.124 14.61 133.484 15.37 133.684 16.27C133.904 17.15 134.014 18.12 134.014 19.18V28H130.384V19.75C130.384 18.91 130.324 18.2 130.204 17.62C130.104 17.02 129.924 16.54 129.664 16.18C129.424 15.8 129.084 15.53 128.644 15.37C128.224 15.19 127.704 15.1 127.084 15.1C126.624 15.1 126.144 15.13 125.644 15.19C125.144 15.25 124.774 15.3 124.534 15.34V28H120.904V12.82Z" fill="#354A62"/>
<path d="M150.663 26.23V28H138.843V7.21H140.883V26.23H150.663ZM155.731 28H153.781V12.49H155.731V28ZM156.181 7.81C156.181 8.27 156.041 8.64 155.761 8.92C155.481 9.18 155.141 9.31 154.741 9.31C154.341 9.31 154.001 9.18 153.721 8.92C153.441 8.64 153.301 8.27 153.301 7.81C153.301 7.35 153.441 6.99 153.721 6.73C154.001 6.45 154.341 6.31 154.741 6.31C155.141 6.31 155.481 6.45 155.761 6.73C156.041 6.99 156.181 7.35 156.181 7.81ZM165.04 19.57C165.66 19.99 166.32 20.53 167.02 21.19C167.74 21.85 168.44 22.57 169.12 23.35C169.82 24.11 170.47 24.9 171.07 25.72C171.69 26.52 172.21 27.28 172.63 28H170.32C169.84 27.2 169.29 26.42 168.67 25.66C168.07 24.88 167.43 24.15 166.75 23.47C166.09 22.79 165.42 22.17 164.74 21.61C164.08 21.05 163.45 20.58 162.85 20.2V28H160.9V5.08L162.85 4.72V19.48C163.35 19 163.91 18.45 164.53 17.83C165.15 17.21 165.77 16.58 166.39 15.94C167.03 15.3 167.63 14.68 168.19 14.08C168.75 13.48 169.23 12.95 169.63 12.49H171.97C171.51 12.97 170.99 13.51 170.41 14.11C169.83 14.71 169.22 15.34 168.58 16C167.96 16.64 167.34 17.27 166.72 17.89C166.1 18.51 165.54 19.07 165.04 19.57ZM174.384 20.23C174.384 18.87 174.574 17.69 174.954 16.69C175.354 15.67 175.864 14.82 176.484 14.14C177.124 13.46 177.844 12.96 178.644 12.64C179.464 12.3 180.304 12.13 181.164 12.13C183.064 12.13 184.574 12.75 185.694 13.99C186.834 15.23 187.404 17.14 187.404 19.72C187.404 19.88 187.394 20.04 187.374 20.2C187.374 20.36 187.364 20.51 187.344 20.65H176.454C176.514 22.55 176.984 24.01 177.864 25.03C178.744 26.05 180.144 26.56 182.064 26.56C183.124 26.56 183.964 26.46 184.584 26.26C185.204 26.06 185.654 25.89 185.934 25.75L186.294 27.43C186.014 27.59 185.484 27.78 184.704 28C183.944 28.22 183.044 28.33 182.004 28.33C180.644 28.33 179.484 28.13 178.524 27.73C177.564 27.33 176.774 26.77 176.154 26.05C175.534 25.33 175.084 24.48 174.804 23.5C174.524 22.5 174.384 21.41 174.384 20.23ZM185.394 19C185.354 17.38 184.974 16.12 184.254 15.22C183.534 14.32 182.514 13.87 181.194 13.87C180.494 13.87 179.864 14.01 179.304 14.29C178.764 14.57 178.284 14.95 177.864 15.43C177.464 15.89 177.144 16.43 176.904 17.05C176.684 17.67 176.554 18.32 176.514 19H185.394Z" fill="url(#paint1_linear_116_12)"/>
<defs>
<linearGradient id="paint0_linear_116_12" x1="5" y1="21.5714" x2="23.2857" y2="21.5714" gradientUnits="userSpaceOnUse">
<stop stop-color="#073992"/>
<stop offset="1" stop-color="#00628F"/>
<stop offset="1" stop-color="#00628F"/>
</linearGradient>
<linearGradient id="paint1_linear_116_12" x1="138.607" y1="19.5435" x2="189.27" y2="20.1274" gradientUnits="userSpaceOnUse">
<stop stop-color="#073992"/>
<stop offset="1" stop-color="#00628F"/>
</linearGradient>
</defs>
</svg>
