<svg width="311" height="48" viewBox="0 0 311 48" fill="none" xmlns="http://www.w3.org/2000/svg">
<path d="M8.5 44H10.25V24.8421H8.5C7.57174 24.8421 6.6815 25.1526 6.02513 25.7054C5.36875 26.2581 5 27.0078 5 27.7895V41.0526C5 41.8343 5.36875 42.584 6.02513 43.1367C6.6815 43.6895 7.57174 44 8.5 44ZM36.5 24.8421H24.25L26.2135 19.8787C26.3887 19.4358 26.4364 18.9641 26.3528 18.5025C26.2691 18.041 26.0564 17.6028 25.7322 17.224C25.408 16.8453 24.9816 16.5368 24.4881 16.324C23.9947 16.1112 23.4482 16.0001 22.8938 16H22.5L13.75 24.0139V44H33L39.846 31.3322L40 30.7368V27.7895C40 27.0078 39.6312 26.2581 38.9749 25.7054C38.3185 25.1526 37.4283 24.8421 36.5 24.8421Z" fill="url(#paint0_linear_6_461)"/>
<path d="M1 18C1 15.7909 2.79086 14 5 14H43V42C43 44.2091 41.2091 46 39 46H5C2.79086 46 1 44.2091 1 42V18Z" stroke="#FAFAFA" stroke-width="2"/>
<path d="M48.15 47V12.35H70.05V17.7H54.45V26.55H68.3V31.9H54.45V47H48.15ZM82.343 42.75C84.2096 42.75 85.6263 42.65 86.593 42.45V35.75C86.2596 35.65 85.7763 35.55 85.143 35.45C84.5096 35.35 83.8096 35.3 83.043 35.3C82.3763 35.3 81.693 35.35 80.993 35.45C80.3263 35.55 79.7096 35.7333 79.143 36C78.6096 36.2667 78.1763 36.65 77.843 37.15C77.5096 37.6167 77.343 38.2167 77.343 38.95C77.343 40.3833 77.793 41.3833 78.693 41.95C79.593 42.4833 80.8096 42.75 82.343 42.75ZM81.843 20.2C83.843 20.2 85.5263 20.45 86.893 20.95C88.2596 21.45 89.343 22.15 90.143 23.05C90.9763 23.95 91.5596 25.05 91.893 26.35C92.2596 27.6167 92.443 29.0167 92.443 30.55V46.4C91.5096 46.6 90.093 46.8333 88.193 47.1C86.3263 47.4 84.2096 47.55 81.843 47.55C80.2763 47.55 78.843 47.4 77.543 47.1C76.243 46.8 75.1263 46.3167 74.193 45.65C73.293 44.9833 72.5763 44.1167 72.043 43.05C71.543 41.9833 71.293 40.6667 71.293 39.1C71.293 37.6 71.5763 36.3333 72.143 35.3C72.743 34.2667 73.543 33.4333 74.543 32.8C75.543 32.1333 76.693 31.6667 77.993 31.4C79.3263 31.1 80.7096 30.95 82.143 30.95C82.8096 30.95 83.5096 31 84.243 31.1C84.9763 31.1667 85.7596 31.3 86.593 31.5V30.5C86.593 29.8 86.5096 29.1333 86.343 28.5C86.1763 27.8667 85.8763 27.3167 85.443 26.85C85.043 26.35 84.493 25.9667 83.793 25.7C83.1263 25.4333 82.2763 25.3 81.243 25.3C79.843 25.3 78.5596 25.4 77.393 25.6C76.2263 25.8 75.2763 26.0333 74.543 26.3L73.793 21.4C74.5596 21.1333 75.6763 20.8667 77.143 20.6C78.6096 20.3333 80.1763 20.2 81.843 20.2ZM106.402 42.65C108.002 42.65 109.169 42.4667 109.902 42.1C110.635 41.7 111.002 41.0333 111.002 40.1C111.002 39.2333 110.602 38.5167 109.802 37.95C109.035 37.3833 107.752 36.7667 105.952 36.1C104.852 35.7 103.835 35.2833 102.902 34.85C102.002 34.3833 101.219 33.85 100.552 33.25C99.8853 32.65 99.352 31.9333 98.952 31.1C98.5853 30.2333 98.402 29.1833 98.402 27.95C98.402 25.55 99.2853 23.6667 101.052 22.3C102.819 20.9 105.219 20.2 108.252 20.2C109.785 20.2 111.252 20.35 112.652 20.65C114.052 20.9167 115.102 21.1833 115.802 21.45L114.702 26.35C114.035 26.05 113.185 25.7833 112.152 25.55C111.119 25.2833 109.919 25.15 108.552 25.15C107.319 25.15 106.319 25.3667 105.552 25.8C104.785 26.2 104.402 26.8333 104.402 27.7C104.402 28.1333 104.469 28.5167 104.602 28.85C104.769 29.1833 105.035 29.5 105.402 29.8C105.769 30.0667 106.252 30.35 106.852 30.65C107.452 30.9167 108.185 31.2 109.052 31.5C110.485 32.0333 111.702 32.5667 112.702 33.1C113.702 33.6 114.519 34.1833 115.152 34.85C115.819 35.4833 116.302 36.2167 116.602 37.05C116.902 37.8833 117.052 38.8833 117.052 40.05C117.052 42.55 116.119 44.45 114.252 45.75C112.419 47.0167 109.785 47.65 106.352 47.65C104.052 47.65 102.202 47.45 100.802 47.05C99.402 46.6833 98.4186 46.3833 97.852 46.15L98.902 41.1C99.802 41.4667 100.869 41.8167 102.102 42.15C103.369 42.4833 104.802 42.65 106.402 42.65ZM122.704 47V9.2L128.754 8.2V21.15C129.42 20.9167 130.187 20.7167 131.054 20.55C131.954 20.3833 132.837 20.3 133.704 20.3C135.804 20.3 137.537 20.6 138.904 21.2C140.304 21.7667 141.42 22.5833 142.254 23.65C143.087 24.6833 143.67 25.9333 144.004 27.4C144.37 28.8667 144.554 30.5 144.554 32.3V47H138.504V33.25C138.504 31.85 138.404 30.6667 138.204 29.7C138.037 28.7 137.737 27.9 137.304 27.3C136.904 26.6667 136.354 26.2167 135.654 25.95C134.954 25.65 134.087 25.5 133.054 25.5C132.254 25.5 131.437 25.5833 130.604 25.75C129.77 25.9167 129.154 26.0667 128.754 26.2V47H122.704ZM157.905 47H151.855V20.85H157.905V47ZM158.555 13.2C158.555 14.3333 158.188 15.2333 157.455 15.9C156.722 16.5667 155.855 16.9 154.855 16.9C153.822 16.9 152.938 16.5667 152.205 15.9C151.472 15.2333 151.105 14.3333 151.105 13.2C151.105 12.0333 151.472 11.1167 152.205 10.45C152.938 9.78333 153.822 9.45 154.855 9.45C155.855 9.45 156.722 9.78333 157.455 10.45C158.188 11.1167 158.555 12.0333 158.555 13.2ZM189.273 33.9C189.273 35.9667 188.973 37.85 188.373 39.55C187.773 41.25 186.923 42.7 185.823 43.9C184.723 45.1 183.39 46.0333 181.823 46.7C180.29 47.3667 178.59 47.7 176.723 47.7C174.857 47.7 173.157 47.3667 171.623 46.7C170.09 46.0333 168.773 45.1 167.673 43.9C166.573 42.7 165.707 41.25 165.073 39.55C164.473 37.85 164.173 35.9667 164.173 33.9C164.173 31.8333 164.473 29.9667 165.073 28.3C165.707 26.6 166.573 25.15 167.673 23.95C168.807 22.75 170.14 21.8333 171.673 21.2C173.207 20.5333 174.89 20.2 176.723 20.2C178.557 20.2 180.24 20.5333 181.773 21.2C183.34 21.8333 184.673 22.75 185.773 23.95C186.873 25.15 187.723 26.6 188.323 28.3C188.957 29.9667 189.273 31.8333 189.273 33.9ZM183.073 33.9C183.073 31.3 182.507 29.25 181.373 27.75C180.273 26.2167 178.723 25.45 176.723 25.45C174.723 25.45 173.157 26.2167 172.023 27.75C170.923 29.25 170.373 31.3 170.373 33.9C170.373 36.5333 170.923 38.6167 172.023 40.15C173.157 41.6833 174.723 42.45 176.723 42.45C178.723 42.45 180.273 41.6833 181.373 40.15C182.507 38.6167 183.073 36.5333 183.073 33.9ZM195.506 21.7C196.673 21.3667 198.19 21.05 200.056 20.75C201.923 20.45 203.99 20.3 206.256 20.3C208.39 20.3 210.173 20.6 211.606 21.2C213.04 21.7667 214.173 22.5833 215.006 23.65C215.873 24.6833 216.473 25.95 216.806 27.45C217.173 28.9167 217.356 30.5333 217.356 32.3V47H211.306V33.25C211.306 31.85 211.206 30.6667 211.006 29.7C210.84 28.7 210.54 27.9 210.106 27.3C209.706 26.6667 209.14 26.2167 208.406 25.95C207.706 25.65 206.84 25.5 205.806 25.5C205.04 25.5 204.24 25.55 203.406 25.65C202.573 25.75 201.956 25.8333 201.556 25.9V47H195.506V21.7Z" fill="#354A62"/>
<path d="M245.104 44.05V47H225.404V12.35H228.804V44.05H245.104ZM253.552 47H250.302V21.15H253.552V47ZM254.302 13.35C254.302 14.1167 254.069 14.7333 253.602 15.2C253.135 15.6333 252.569 15.85 251.902 15.85C251.235 15.85 250.669 15.6333 250.202 15.2C249.735 14.7333 249.502 14.1167 249.502 13.35C249.502 12.5833 249.735 11.9833 250.202 11.55C250.669 11.0833 251.235 10.85 251.902 10.85C252.569 10.85 253.135 11.0833 253.602 11.55C254.069 11.9833 254.302 12.5833 254.302 13.35ZM269.067 32.95C270.101 33.65 271.201 34.55 272.367 35.65C273.567 36.75 274.734 37.95 275.867 39.25C277.034 40.5167 278.117 41.8333 279.117 43.2C280.151 44.5333 281.017 45.8 281.717 47H277.867C277.067 45.6667 276.151 44.3667 275.117 43.1C274.117 41.8 273.051 40.5833 271.917 39.45C270.817 38.3167 269.701 37.2833 268.567 36.35C267.467 35.4167 266.417 34.6333 265.417 34V47H262.167V8.8L265.417 8.2V32.8C266.251 32 267.184 31.0833 268.217 30.05C269.251 29.0167 270.284 27.9667 271.317 26.9C272.384 25.8333 273.384 24.8 274.317 23.8C275.251 22.8 276.051 21.9167 276.717 21.15H280.617C279.851 21.95 278.984 22.85 278.017 23.85C277.051 24.85 276.034 25.9 274.967 27C273.934 28.0667 272.901 29.1167 271.867 30.15C270.834 31.1833 269.901 32.1167 269.067 32.95ZM284.641 34.05C284.641 31.7833 284.957 29.8167 285.591 28.15C286.257 26.45 287.107 25.0333 288.141 23.9C289.207 22.7667 290.407 21.9333 291.741 21.4C293.107 20.8333 294.507 20.55 295.941 20.55C299.107 20.55 301.624 21.5833 303.491 23.65C305.391 25.7167 306.341 28.9 306.341 33.2C306.341 33.4667 306.324 33.7333 306.291 34C306.291 34.2667 306.274 34.5167 306.241 34.75H288.091C288.191 37.9167 288.974 40.35 290.441 42.05C291.907 43.75 294.241 44.6 297.441 44.6C299.207 44.6 300.607 44.4333 301.641 44.1C302.674 43.7667 303.424 43.4833 303.891 43.25L304.491 46.05C304.024 46.3167 303.141 46.6333 301.841 47C300.574 47.3667 299.074 47.55 297.341 47.55C295.074 47.55 293.141 47.2167 291.541 46.55C289.941 45.8833 288.624 44.95 287.591 43.75C286.557 42.55 285.807 41.1333 285.341 39.5C284.874 37.8333 284.641 36.0167 284.641 34.05ZM302.991 32C302.924 29.3 302.291 27.2 301.091 25.7C299.891 24.2 298.191 23.45 295.991 23.45C294.824 23.45 293.774 23.6833 292.841 24.15C291.941 24.6167 291.141 25.25 290.441 26.05C289.774 26.8167 289.241 27.7167 288.841 28.75C288.474 29.7833 288.257 30.8667 288.191 32H302.991Z" fill="url(#paint1_linear_6_461)"/>
<defs>
<linearGradient id="paint0_linear_6_461" x1="5" y1="35" x2="37" y2="35" gradientUnits="userSpaceOnUse">
<stop stop-color="#073992"/>
<stop offset="1" stop-color="#00628F"/>
<stop offset="1" stop-color="#00628F"/>
</linearGradient>
<linearGradient id="paint1_linear_6_461" x1="223" y1="31" x2="306.5" y2="32" gradientUnits="userSpaceOnUse">
<stop stop-color="#073992"/>
<stop offset="1" stop-color="#00628F"/>
</linearGradient>
</defs>
</svg>
