<svg width="50" height="50" viewBox="0 0 50 50" fill="none" xmlns="http://www.w3.org/2000/svg">
<circle cx="25" cy="25" r="25" fill="#00628F"/>
<path d="M9.5 13C9.5 10.5147 11.5147 8.5 14 8.5H40.5V38C40.5 40.4853 38.4853 42.5 36 42.5H14C11.5147 42.5 9.5 40.4853 9.5 38V13Z" stroke="#FAFAFA"/>
<path d="M14.5 38H15.75V20.8947H14.5C13.837 20.8947 13.2011 21.172 12.7322 21.6655C12.2634 22.159 12 22.8284 12 23.5263V35.3684C12 36.0664 12.2634 36.7357 12.7322 37.2292C13.2011 37.7227 13.837 38 14.5 38ZM34.5 20.8947H25.75L27.1525 16.4632C27.2776 16.0677 27.3117 15.6465 27.252 15.2344C27.1922 14.8223 27.0403 14.4311 26.8087 14.0929C26.5772 13.7547 26.2726 13.4793 25.9201 13.2893C25.5676 13.0992 25.1773 13.0001 24.7813 13H24.5L18.25 20.1553V38H32L36.89 26.6895L37 26.1579V23.5263C37 22.8284 36.7366 22.159 36.2678 21.6655C35.7989 21.172 35.163 20.8947 34.5 20.8947Z" fill="url(#paint0_linear_90_29)"/>
<defs>
<linearGradient id="paint0_linear_90_29" x1="12" y1="29.9643" x2="34.8571" y2="29.9643" gradientUnits="userSpaceOnUse">
<stop stop-color="#073992"/>
<stop offset="0.0001" stop-color="#E5E5E5"/>
<stop offset="0.426659" stop-color="white"/>
<stop offset="0.760417" stop-color="white"/>
<stop offset="1" stop-color="white"/>
</linearGradient>
</defs>
</svg>
